{
    "asset" : {
        "generator" : "Khronos glTF Blender I/O v1.6.16",
        "version" : "2.0"
    },
    "scene" : 0,
    "scenes" : [
        {
            "name" : "Scene",
            "nodes" : [
                0
            ]
        }
    ],
    "nodes" : [
        {
            "mesh" : 0,
            "name" : "2",
            "scale" : [
                29.67909049987793,
                29.67909049987793,
                29.67909049987793
            ],
            "translation" : [
                60.6775016784668,
                0.2226617932319641,
                -0.8547437191009521
            ]
        }
    ],
    "animations" : [
        {
            "channels" : [
                {
                    "sampler" : 0,
                    "target" : {
                        "node" : 0,
                        "path" : "weights"
                    }
                }
            ],
            "name" : "KeyAction.001",
            "samplers" : [
                {
                    "input" : 6,
                    "interpolation" : "LINEAR",
                    "output" : 7
                }
            ]
        }
    ],
    "materials" : [
        {
            "doubleSided" : true,
            "name" : "2",
            "pbrMetallicRoughness" : {
                "baseColorTexture" : {
                    "index" : 0
                },
                "metallicFactor" : 0.4485294222831726,
                "roughnessFactor" : 0.11764705181121826
            }
        }
    ],
    "meshes" : [
        {
            "extras" : {
                "targetNames" : [
                    "Key 1"
                ]
            },
            "name" : "2",
            "primitives" : [
                {
                    "attributes" : {
                        "POSITION" : 0,
                        "NORMAL" : 1,
                        "TEXCOORD_0" : 2
                    },
                    "indices" : 3,
                    "material" : 0,
                    "targets" : [
                        {
                            "POSITION" : 4,
                            "NORMAL" : 5
                        }
                    ]
                }
            ],
            "weights" : [
                0
            ]
        }
    ],
    "textures" : [
        {
            "sampler" : 0,
            "source" : 0
        }
    ],
    "images" : [
        {
            "bufferView" : 4,
            "mimeType" : "image/png",
            "name" : "2"
        }
    ],
    "accessors" : [
        {
            "bufferView" : 0,
            "componentType" : 5126,
            "count" : 4667,
            "max" : [
                0.7129278182983398,
                0.007014254108071327,
                0.5000000596046448
            ],
            "min" : [
                -0.7129278182983398,
                0.00701425364241004,
                -0.5000000596046448
            ],
            "type" : "VEC3"
        },
        {
            "bufferView" : 1,
            "componentType" : 5126,
            "count" : 4667,
            "type" : "VEC3"
        },
        {
            "bufferView" : 2,
            "componentType" : 5126,
            "count" : 4667,
            "type" : "VEC2"
        },
        {
            "bufferView" : 3,
            "componentType" : 5123,
            "count" : 7938,
            "type" : "SCALAR"
        },
        {
            "bufferView" : 5,
            "componentType" : 5126,
            "count" : 4667,
            "max" : [
                5.960464477539063e-08,
                0.011666912585496902,
                5.960464477539063e-08
            ],
            "min" : [
                -5.960464477539063e-08,
                -0.03947731852531433,
                -5.960464477539063e-08
            ],
            "type" : "VEC3"
        },
        {
            "bufferView" : 6,
            "componentType" : 5126,
            "count" : 4667,
            "type" : "VEC3"
        },
        {
            "bufferView" : 7,
            "componentType" : 5126,
            "count" : 60,
            "max" : [
                2.5
            ],
            "min" : [
                0.041666666666666664
            ],
            "type" : "SCALAR"
        },
        {
            "bufferView" : 8,
            "componentType" : 5126,
            "count" : 60,
            "type" : "SCALAR"
        }
    ],
    "bufferViews" : [
        {
            "buffer" : 0,
            "byteLength" : 56004,
            "byteOffset" : 0
        },
        {
            "buffer" : 0,
            "byteLength" : 56004,
            "byteOffset" : 56004
        },
        {
            "buffer" : 0,
            "byteLength" : 37336,
            "byteOffset" : 112008
        },
        {
            "buffer" : 0,
            "byteLength" : 15876,
            "byteOffset" : 149344
        },
        {
            "buffer" : 0,
            "byteLength" : 2267699,
            "byteOffset" : 165220
        },
        {
            "buffer" : 0,
            "byteLength" : 56004,
            "byteOffset" : 2432920
        },
        {
            "buffer" : 0,
            "byteLength" : 56004,
            "byteOffset" : 2488924
        },
        {
            "buffer" : 0,
            "byteLength" : 240,
            "byteOffset" : 2544928
        },
        {
            "buffer" : 0,
            "byteLength" : 240,
            "byteOffset" : 2545168
        }
    ],
    "samplers" : [
        {
            "magFilter" : 9729,
            "minFilter" : 9987,
            "wrapS" : 33071,
            "wrapT" : 33071
        }
    ],
    "buffers" : [
        {
            "byteLength" : 2545408,
            "uri" : "data:application/octet-stream;base64,"
        }
    ]
}
